# xmcd CD database file
#
# Track frame offsets:
#	150
#	14199
#	39053
#	66866
#	90528
#	125021
#	155840
#	162048
#	189549
#	208652
#	232487
#	266612
#	272671
#
# Disc length: 3998 seconds
#
# Revision: 0
# Processed by: cddbd v1.5.2PL0 Copyright (c) Steve Scherf et al.
# Submitted via: CDex 1.70beta2
#
DISCID=bd0f9c0d
DTITLE=Yorgui Loeffler,Steeve Laffont and Raphael Fays - Django et rien d'autre ! (live at es Nuits Manouches)  Cd 2
DYEAR=2010
DGENRE=Jazz
TTITLE0=Rythme futur
TTITLE1=Mélodie au crépuscule
TTITLE2=Mano
TTITLE3=Djangology
TTITLE4=Vamp
TTITLE5=Douce ambiance
TTITLE6=Présentation
TTITLE7=Manoir de mes rêves
TTITLE8=Daphné
TTITLE9=Nuages
TTITLE10=Minor swing
TTITLE11=Présentation
TTITLE12=Hungaria
EXTD=YEAR: 2010
EXTT0=
EXTT1=
EXTT2=
EXTT3=
EXTT4=
EXTT5=
EXTT6=
EXTT7=
EXTT8=
EXTT9=
EXTT10=
EXTT11=
EXTT12=
PLAYORDER=
